<svg xmlns="http://www.w3.org/2000/svg" width="259" height="228" fill="none" viewBox="0 0 259 228"><rect width="26" height="23" x="116" y="76" fill="#FBD133" rx="8"/><rect width="14" height="22" x="122" y="81" fill="#7165E3" rx="5"/><path fill="#FBD133" fill-rule="evenodd" d="M194.061 155.031C194.061 190.946 164.946 220.061 129.031 220.061C93.1151 220.061 64 190.946 64 155.031C64 119.115 93.1151 90 129.031 90C164.946 90 194.061 119.115 194.061 155.031Z" clip-rule="evenodd"/><path fill="#FFBF1E" fill-rule="evenodd" d="M107.819 119.971C106.376 119.312 105.373 118.106 104.948 116.723C106.304 116.154 107.893 116.129 109.337 116.787C110.78 117.445 111.782 118.652 112.207 120.034C110.851 120.604 109.262 120.629 107.819 119.971Z" clip-rule="evenodd"/><path fill="#FFBF1E" fill-rule="evenodd" d="M107.569 113.41C106.914 114.86 105.714 115.868 104.338 116.295C103.77 114.932 103.746 113.335 104.401 111.885C105.056 110.434 106.256 109.427 107.632 109C108.199 110.363 108.224 111.96 107.569 113.41Z" clip-rule="evenodd"/><path fill="#FFBF1E" fill-rule="evenodd" d="M101.919 123.39C100.476 122.942 99.3488 121.811 98.7257 120.379C99.8837 119.5 101.349 119.173 102.792 119.621C104.235 120.069 105.362 121.199 105.985 122.631C104.827 123.511 103.363 123.837 101.919 123.39Z" clip-rule="evenodd"/><path fill="#FFBF1E" fill-rule="evenodd" d="M101.638 116.796C101.192 118.453 100.067 119.747 98.6422 120.463C97.7668 119.133 97.4423 117.451 97.8876 115.794C98.3328 114.137 99.458 112.842 100.883 112.126C101.759 113.457 102.084 115.138 101.638 116.796Z" clip-rule="evenodd"/><path fill="#FFBF1E" fill-rule="evenodd" d="M97.0277 126.692C95.5847 126.532 94.3441 125.592 93.5405 124.23C94.5184 123.064 95.8696 122.411 97.3126 122.571C98.7561 122.731 99.9963 123.671 100.8 125.034C99.8219 126.199 98.4707 126.852 97.0277 126.692Z" clip-rule="evenodd"/><path fill="#FFBF1E" fill-rule="evenodd" d="M95.5968 120.627C95.4776 122.284 94.7759 123.709 93.7591 124.632C92.8895 123.508 92.4017 121.957 92.5215 120.3C92.6407 118.642 93.3424 117.217 94.3592 116.295C95.2288 117.418 95.7161 118.969 95.5968 120.627Z" clip-rule="evenodd"/><path fill="#FFBF1E" fill-rule="evenodd" d="M93.1644 131.902C91.7214 132.062 90.3707 131.409 89.3923 130.244C90.1959 128.882 91.4365 127.942 92.8795 127.782C94.323 127.622 95.6737 128.275 96.6516 129.441C95.8486 130.803 94.6074 131.743 93.1644 131.902Z" clip-rule="evenodd"/><path fill="#FFBF1E" fill-rule="evenodd" d="M90.4115 125.51C90.5308 127.167 90.0435 128.718 89.1738 129.842C88.157 128.919 87.4549 127.494 87.336 125.837C87.2168 124.179 87.7041 122.628 88.5738 121.505C89.5906 122.427 90.2923 123.853 90.4115 125.51Z" clip-rule="evenodd"/><path fill="#FFBF1E" fill-rule="evenodd" d="M89.31 136.937C87.867 137.384 86.4026 137.058 85.2443 136.179C85.8678 134.746 86.9948 133.616 88.4378 133.168C89.8808 132.721 91.3451 133.047 92.5035 133.927C91.88 135.359 90.753 136.489 89.31 136.937Z" clip-rule="evenodd"/><path fill="#FFBF1E" fill-rule="evenodd" d="M86.0821 131.426C86.528 133.083 86.2029 134.765 85.3275 136.095C83.9024 135.379 82.7772 134.085 82.3319 132.428C81.8866 130.77 82.2111 129.088 83.0865 127.758C84.5116 128.474 85.6368 129.768 86.0821 131.426Z" clip-rule="evenodd"/><path fill="#FFBF1E" fill-rule="evenodd" d="M87.5585 142.897C86.1155 143.555 84.5262 143.531 83.1702 142.96C83.5956 141.578 84.5975 140.372 86.0405 139.713C87.484 139.056 89.0733 139.08 90.4294 139.65C90.004 141.033 89.0015 142.239 87.5585 142.897Z" clip-rule="evenodd"/><path fill="#FFBF1E" fill-rule="evenodd" d="M82.6799 138.979C83.3351 140.429 83.3104 142.027 82.7435 143.389C81.3675 142.962 80.167 141.955 79.5123 140.505C78.8572 139.054 78.8814 137.458 79.4488 136.095C80.8248 136.522 82.0248 137.529 82.6799 138.979Z" clip-rule="evenodd"/><path fill="#FFBF1E" fill-rule="evenodd" d="M85.1843 149.649C83.9468 150.624 82.459 150.892 81.0961 150.53C81.2604 148.966 81.9936 147.484 83.2306 146.509C84.4675 145.534 85.9559 145.266 87.3183 145.627C87.1545 147.192 86.4213 148.674 85.1843 149.649Z" clip-rule="evenodd"/><path fill="#FFBF1E" fill-rule="evenodd" d="M81.1028 145.534C82.0729 146.777 82.3395 148.273 81.98 149.642C80.4228 149.477 78.9482 148.74 77.9781 147.497C77.008 146.254 76.7414 144.759 77.1009 143.39C78.6581 143.554 80.1327 144.291 81.1028 145.534Z" clip-rule="evenodd"/><path fill="#FFBF1E" fill-rule="evenodd" d="M84.8475 156.25C83.8197 157.489 82.4491 158.062 81.104 157.969C81.0276 156.347 81.5021 154.694 82.5299 153.455C83.5571 152.216 84.9283 151.644 86.2733 151.736C86.3497 153.358 85.8752 155.011 84.8475 156.25Z" clip-rule="evenodd"/><mask id="mask0" width="7" height="7" x="75" y="151" mask-type="alpha" maskUnits="userSpaceOnUse"><path fill="#fff" fill-rule="evenodd" d="M75.9109 151.782H81.3678V157.266H75.9109V151.782Z" clip-rule="evenodd"/></mask><g mask="url(#mask0)"><path fill="#FFBF1E" fill-rule="evenodd" d="M79.8589 153.299C80.9406 154.386 81.4399 155.835 81.3595 157.258C79.944 157.339 78.5009 156.837 77.4193 155.75C76.3382 154.663 75.8389 153.214 75.9192 151.791C77.3348 151.71 78.7773 152.212 79.8589 153.299Z" clip-rule="evenodd"/></g><path fill="#FFBF1E" fill-rule="evenodd" d="M86.288 162.087C85.3179 163.33 83.8433 164.066 82.2861 164.232C81.9266 162.862 82.1932 161.367 83.1633 160.124C84.1334 158.881 85.608 158.144 87.1652 157.979C87.5247 159.348 87.2581 160.844 86.288 162.087Z" clip-rule="evenodd"/><path fill="#FFBF1E" fill-rule="evenodd" d="M79.9986 161.099C81.2361 162.073 81.9688 163.555 82.1331 165.12C80.7702 165.481 79.2823 165.213 78.0449 164.238C76.8079 163.264 76.0747 161.782 75.9109 160.217C77.2733 159.855 78.7617 160.124 79.9986 161.099Z" clip-rule="evenodd"/><path fill="#FFBF1E" fill-rule="evenodd" d="M87.8649 168.642C87.2103 170.092 86.0098 171.099 84.6338 171.526C84.0669 170.164 84.0422 168.567 84.6973 167.116C85.352 165.666 86.5525 164.659 87.9285 164.232C88.4959 165.595 88.5201 167.191 87.8649 168.642Z" clip-rule="evenodd"/><path fill="#FFBF1E" fill-rule="evenodd" d="M82.3737 167.85C83.8168 168.509 84.8194 169.715 85.2442 171.097C83.8881 171.668 82.2986 171.692 80.8555 171.034C79.4124 170.376 78.4099 169.17 77.985 167.787C79.3412 167.217 80.9306 167.192 82.3737 167.85Z" clip-rule="evenodd"/><path fill="#FFBF1E" fill-rule="evenodd" d="M91.2675 174.111C90.8217 175.769 89.6971 177.063 88.2719 177.779C87.3965 176.449 87.0715 174.767 87.5173 173.109C87.9626 171.452 89.0878 170.158 90.513 169.442C91.3884 170.772 91.7128 172.453 91.2675 174.111Z" clip-rule="evenodd"/><path fill="#FFBF1E" fill-rule="evenodd" d="M85.1619 174.852C86.6051 175.3 87.7322 176.43 88.3553 177.863C87.1973 178.742 85.7328 179.068 84.2895 178.622C82.8463 178.173 81.7192 177.043 81.0961 175.611C82.2541 174.731 83.7181 174.405 85.1619 174.852Z" clip-rule="evenodd"/><path fill="#FFBF1E" fill-rule="evenodd" d="M94.5597 180.026C94.4405 181.684 93.7388 183.109 92.722 184.032C91.8524 182.908 91.3646 181.356 91.4844 179.699C91.6032 178.042 92.3053 176.617 93.3221 175.695C94.1917 176.818 94.679 178.369 94.5597 180.026Z" clip-rule="evenodd"/><path fill="#FFBF1E" fill-rule="evenodd" d="M89.0163 180.929C90.4593 181.089 91.7005 182.029 92.5035 183.391C91.5256 184.557 90.1745 185.21 88.7315 185.05C87.2884 184.89 86.0478 183.95 85.2443 182.588C86.2226 181.422 87.5733 180.769 89.0163 180.929Z" clip-rule="evenodd"/><path fill="#FFBF1E" fill-rule="evenodd" d="M98.7079 183.868C98.8272 185.525 98.34 187.076 97.4704 188.2C96.4533 187.277 95.7517 185.853 95.6324 184.195C95.5132 182.538 96.0008 180.987 96.8704 179.863C97.8871 180.785 98.5887 182.211 98.7079 183.868Z" clip-rule="evenodd"/><path fill="#FFBF1E" fill-rule="evenodd" d="M93.9166 187.182C95.3596 187.022 96.7103 187.675 97.6887 188.84C96.8852 190.202 95.6445 191.143 94.2015 191.302C92.758 191.463 91.4073 190.809 90.4294 189.644C91.2325 188.282 92.4736 187.342 93.9166 187.182Z" clip-rule="evenodd"/><path fill="#FFBF1E" fill-rule="evenodd" d="M104.749 187.699C105.194 189.357 104.87 191.038 103.994 192.368C102.569 191.653 101.444 190.358 100.999 188.701C100.553 187.043 100.878 185.361 101.753 184.032C103.179 184.747 104.303 186.042 104.749 187.699Z" clip-rule="evenodd"/><path fill="#FFBF1E" fill-rule="evenodd" d="M98.8084 191.526C100.252 191.079 101.716 191.405 102.874 192.284C102.251 193.716 101.124 194.847 99.6806 195.295C98.2375 195.742 96.7731 195.416 95.6146 194.537C96.2382 193.104 97.3652 191.974 98.8084 191.526Z" clip-rule="evenodd"/><path fill="#FFBF1E" fill-rule="evenodd" d="M109.643 190.043C110.298 191.493 110.274 193.089 109.706 194.453C108.33 194.025 107.13 193.018 106.475 191.568C105.82 190.118 105.844 188.521 106.412 187.158C107.788 187.585 108.988 188.592 109.643 190.043Z" clip-rule="evenodd"/><path fill="#FFBF1E" fill-rule="evenodd" d="M105.744 194.945C107.188 194.287 108.777 194.311 110.133 194.882C109.708 196.264 108.706 197.47 107.263 198.128C105.819 198.787 104.23 198.762 102.874 198.192C103.299 196.809 104.301 195.603 105.744 194.945Z" clip-rule="evenodd"/><path fill="#FFBF1E" fill-rule="evenodd" d="M114.355 114.916C112.912 115.48 111.387 115.311 110.133 114.587C110.661 113.167 111.727 111.984 113.171 111.421C114.613 110.857 116.139 111.025 117.392 111.75C116.865 113.17 115.798 114.352 114.355 114.916Z" clip-rule="evenodd"/><mask id="mask1" width="51" height="95" x="81" y="112" mask-type="alpha" maskUnits="userSpaceOnUse"><path fill="#fff" fill-rule="evenodd" d="M81.4208 112.304H131.087V206.958H81.4208V112.304Z" clip-rule="evenodd"/></mask><g mask="url(#mask1)"><path fill="#FFBF1E" fill-rule="evenodd" d="M128.574 206.958C121.545 199.564 115.012 196.649 110.179 194.906C109.714 194.739 109.281 194.583 108.888 194.437C92.4595 188.322 81.4208 172.154 81.4208 154.203C81.4208 134.003 95.3834 116.382 114.62 112.304L114.742 112.955C95.7962 116.971 82.0456 134.318 82.0456 154.203C82.0456 171.872 92.9153 187.789 109.094 193.809C109.486 193.955 109.916 194.11 110.38 194.278C115.263 196.038 123.956 198.984 131.087 206.486L128.574 206.958Z" clip-rule="evenodd"/></g><path fill="#FFBF1E" fill-rule="evenodd" d="M152.003 119.971C153.446 119.312 154.449 118.106 154.874 116.723C153.518 116.154 151.929 116.129 150.485 116.787C149.042 117.445 148.04 118.652 147.615 120.034C148.971 120.604 150.56 120.629 152.003 119.971Z" clip-rule="evenodd"/><path fill="#FFBF1E" fill-rule="evenodd" d="M152.253 113.41C152.908 114.86 154.108 115.868 155.484 116.295C156.051 114.932 156.076 113.335 155.421 111.885C154.766 110.434 153.566 109.427 152.19 109C151.622 110.363 151.598 111.96 152.253 113.41Z" clip-rule="evenodd"/><path fill="#FFBF1E" fill-rule="evenodd" d="M157.902 123.39C159.345 122.942 160.473 121.811 161.096 120.379C159.938 119.5 158.473 119.173 157.03 119.621C155.587 120.069 154.46 121.199 153.837 122.631C154.995 123.511 156.459 123.837 157.902 123.39Z" clip-rule="evenodd"/><path fill="#FFBF1E" fill-rule="evenodd" d="M158.184 116.796C158.63 118.453 159.754 119.747 161.18 120.463C162.055 119.133 162.38 117.451 161.934 115.794C161.489 114.137 160.364 112.842 158.939 112.126C158.063 113.457 157.738 115.138 158.184 116.796Z" clip-rule="evenodd"/><path fill="#FFBF1E" fill-rule="evenodd" d="M162.794 126.692C164.237 126.532 165.478 125.592 166.281 124.23C165.303 123.064 163.952 122.411 162.509 122.571C161.066 122.731 159.826 123.671 159.022 125.034C160 126.199 161.351 126.852 162.794 126.692Z" clip-rule="evenodd"/><path fill="#FFBF1E" fill-rule="evenodd" d="M164.225 120.627C164.344 122.284 165.046 123.709 166.063 124.632C166.932 123.508 167.42 121.957 167.3 120.3C167.181 118.642 166.479 117.217 165.463 116.295C164.593 117.418 164.106 118.969 164.225 120.627Z" clip-rule="evenodd"/><path fill="#FFBF1E" fill-rule="evenodd" d="M166.657 131.902C168.1 132.062 169.451 131.409 170.429 130.244C169.626 128.882 168.385 127.942 166.942 127.782C165.499 127.622 164.148 128.275 163.17 129.441C163.973 130.803 165.214 131.743 166.657 131.902Z" clip-rule="evenodd"/><path fill="#FFBF1E" fill-rule="evenodd" d="M169.41 125.51C169.291 127.167 169.778 128.718 170.648 129.842C171.665 128.919 172.367 127.494 172.486 125.837C172.605 124.179 172.118 122.628 171.248 121.505C170.231 122.427 169.53 123.853 169.41 125.51Z" clip-rule="evenodd"/><path fill="#FFBF1E" fill-rule="evenodd" d="M170.512 136.937C171.955 137.384 173.419 137.058 174.578 136.179C173.954 134.746 172.827 133.616 171.384 133.168C169.941 132.721 168.477 133.047 167.318 133.927C167.942 135.359 169.069 136.489 170.512 136.937Z" clip-rule="evenodd"/><path fill="#FFBF1E" fill-rule="evenodd" d="M173.74 131.426C173.294 133.083 173.619 134.765 174.494 136.095C175.919 135.379 177.045 134.085 177.49 132.428C177.935 130.77 177.611 129.088 176.735 127.758C175.31 128.474 174.185 129.768 173.74 131.426Z" clip-rule="evenodd"/><path fill="#FFBF1E" fill-rule="evenodd" d="M172.263 142.897C173.706 143.555 175.296 143.531 176.652 142.96C176.226 141.578 175.224 140.372 173.781 139.713C172.338 139.056 170.748 139.08 169.392 139.65C169.818 141.033 170.82 142.239 172.263 142.897Z" clip-rule="evenodd"/><path fill="#FFBF1E" fill-rule="evenodd" d="M177.142 138.979C176.487 140.429 176.511 142.027 177.078 143.389C178.454 142.962 179.655 141.955 180.309 140.505C180.965 139.054 180.94 137.458 180.373 136.095C178.997 136.522 177.797 137.529 177.142 138.979Z" clip-rule="evenodd"/><path fill="#FFBF1E" fill-rule="evenodd" d="M174.637 149.649C175.875 150.624 177.363 150.892 178.726 150.53C178.561 148.966 177.828 147.484 176.591 146.509C175.354 145.534 173.866 145.266 172.503 145.627C172.667 147.192 173.4 148.674 174.637 149.649Z" clip-rule="evenodd"/><path fill="#FFBF1E" fill-rule="evenodd" d="M178.719 145.534C177.749 146.777 177.482 148.273 177.842 149.642C179.399 149.477 180.874 148.74 181.844 147.497C182.814 146.254 183.08 144.759 182.721 143.39C181.164 143.554 179.689 144.291 178.719 145.534Z" clip-rule="evenodd"/><path fill="#FFBF1E" fill-rule="evenodd" d="M174.974 156.25C176.002 157.489 177.373 158.062 178.718 157.969C178.794 156.347 178.32 154.694 177.292 153.455C176.265 152.216 174.894 151.644 173.548 151.736C173.472 153.358 173.947 155.011 174.974 156.25Z" clip-rule="evenodd"/><mask id="mask2" width="6" height="7" x="178" y="151" mask-type="alpha" maskUnits="userSpaceOnUse"><path fill="#fff" fill-rule="evenodd" d="M183.911 151.782H178.454V157.266H183.911V151.782Z" clip-rule="evenodd"/></mask><g mask="url(#mask2)"><path fill="#FFBF1E" fill-rule="evenodd" d="M179.963 153.299C178.881 154.386 178.382 155.835 178.462 157.258C179.878 157.339 181.321 156.837 182.402 155.75C183.484 154.663 183.983 153.214 183.903 151.791C182.487 151.71 181.044 152.212 179.963 153.299Z" clip-rule="evenodd"/></g><path fill="#FFBF1E" fill-rule="evenodd" d="M173.534 162.087C174.504 163.33 175.979 164.066 177.536 164.232C177.895 162.862 177.629 161.367 176.658 160.124C175.688 158.881 174.214 158.144 172.657 157.979C172.297 159.348 172.564 160.844 173.534 162.087Z" clip-rule="evenodd"/><path fill="#FFBF1E" fill-rule="evenodd" d="M179.823 161.099C178.586 162.073 177.853 163.555 177.689 165.12C179.052 165.481 180.539 165.213 181.777 164.238C183.014 163.264 183.747 161.782 183.911 160.217C182.548 159.855 181.06 160.124 179.823 161.099Z" clip-rule="evenodd"/><path fill="#FFBF1E" fill-rule="evenodd" d="M171.957 168.642C172.611 170.092 173.812 171.099 175.188 171.526C175.755 170.164 175.78 168.567 175.124 167.116C174.47 165.666 173.269 164.659 171.893 164.232C171.326 165.595 171.302 167.191 171.957 168.642Z" clip-rule="evenodd"/><path fill="#FFBF1E" fill-rule="evenodd" d="M177.448 167.85C176.005 168.509 175.002 169.715 174.578 171.097C175.934 171.668 177.523 171.692 178.966 171.034C180.409 170.376 181.412 169.17 181.837 167.787C180.481 167.217 178.891 167.192 177.448 167.85Z" clip-rule="evenodd"/><path fill="#FFBF1E" fill-rule="evenodd" d="M168.554 174.111C169 175.769 170.125 177.063 171.55 177.779C172.425 176.449 172.75 174.767 172.304 173.109C171.859 171.452 170.734 170.158 169.309 169.442C168.433 170.772 168.109 172.453 168.554 174.111Z" clip-rule="evenodd"/><path fill="#FFBF1E" fill-rule="evenodd" d="M174.66 174.852C173.217 175.3 172.09 176.43 171.466 177.863C172.624 178.742 174.089 179.068 175.532 178.622C176.975 178.173 178.103 177.043 178.726 175.611C177.568 174.731 176.104 174.405 174.66 174.852Z" clip-rule="evenodd"/><path fill="#FFBF1E" fill-rule="evenodd" d="M165.262 180.026C165.381 181.684 166.083 183.109 167.1 184.032C167.969 182.908 168.457 181.356 168.337 179.699C168.219 178.042 167.516 176.617 166.5 175.695C165.63 176.818 165.143 178.369 165.262 180.026Z" clip-rule="evenodd"/><path fill="#FFBF1E" fill-rule="evenodd" d="M170.805 180.929C169.362 181.089 168.121 182.029 167.318 183.391C168.296 184.557 169.647 185.21 171.09 185.05C172.533 184.89 173.774 183.95 174.578 182.588C173.599 181.422 172.248 180.769 170.805 180.929Z" clip-rule="evenodd"/><path fill="#FFBF1E" fill-rule="evenodd" d="M161.114 183.868C160.995 185.525 161.482 187.076 162.351 188.2C163.369 187.277 164.07 185.853 164.189 184.195C164.309 182.538 163.821 180.987 162.951 179.863C161.935 180.785 161.233 182.211 161.114 183.868Z" clip-rule="evenodd"/><path fill="#FFBF1E" fill-rule="evenodd" d="M165.905 187.182C164.462 187.022 163.111 187.675 162.133 188.84C162.937 190.202 164.177 191.143 165.62 191.302C167.064 191.463 168.414 190.809 169.392 189.644C168.589 188.282 167.348 187.342 165.905 187.182Z" clip-rule="evenodd"/><path fill="#FFBF1E" fill-rule="evenodd" d="M155.073 187.699C154.627 189.357 154.952 191.038 155.827 192.368C157.253 191.653 158.378 190.358 158.823 188.701C159.268 187.043 158.944 185.361 158.068 184.032C156.643 184.747 155.519 186.042 155.073 187.699Z" clip-rule="evenodd"/><path fill="#FFBF1E" fill-rule="evenodd" d="M161.013 191.526C159.57 191.079 158.106 191.405 156.948 192.284C157.571 193.716 158.698 194.847 160.141 195.295C161.584 195.742 163.049 195.416 164.207 194.537C163.584 193.104 162.457 191.974 161.013 191.526Z" clip-rule="evenodd"/><path fill="#FFBF1E" fill-rule="evenodd" d="M150.179 190.043C149.524 191.493 149.548 193.089 150.116 194.453C151.492 194.025 152.692 193.018 153.347 191.568C154.002 190.118 153.977 188.521 153.41 187.158C152.034 187.585 150.834 188.592 150.179 190.043Z" clip-rule="evenodd"/><path fill="#FFBF1E" fill-rule="evenodd" d="M154.077 194.945C152.634 194.287 151.045 194.311 149.689 194.882C150.114 196.264 151.116 197.47 152.559 198.128C154.003 198.787 155.592 198.762 156.948 198.192C156.523 196.809 155.52 195.603 154.077 194.945Z" clip-rule="evenodd"/><path fill="#FFBF1E" fill-rule="evenodd" d="M145.467 114.916C146.91 115.48 148.434 115.311 149.689 114.587C149.161 113.167 148.094 111.984 146.651 111.421C145.208 110.857 143.683 111.025 142.429 111.75C142.957 113.17 144.024 114.352 145.467 114.916Z" clip-rule="evenodd"/><mask id="mask3" width="51" height="95" x="128" y="112" mask-type="alpha" maskUnits="userSpaceOnUse"><path fill="#fff" fill-rule="evenodd" d="M178.401 112.304H128.735V206.958H178.401V112.304Z" clip-rule="evenodd"/></mask><g mask="url(#mask3)"><path fill="#FFBF1E" fill-rule="evenodd" d="M131.248 206.958C138.277 199.564 144.81 196.649 149.643 194.906C150.108 194.739 150.54 194.583 150.934 194.437C167.362 188.322 178.401 172.154 178.401 154.203C178.401 134.003 164.438 116.382 145.201 112.304L145.079 112.955C164.026 116.971 177.776 134.318 177.776 154.203C177.776 171.872 166.906 187.789 150.728 193.809C150.336 193.955 149.905 194.11 149.442 194.278C144.559 196.038 135.866 198.984 128.735 206.486L131.248 206.958Z" clip-rule="evenodd"/></g><path fill="#FFDC64" d="M198.57 114.35L195.142 117.197L191.001 115.549C190.711 115.433 190.424 115.721 190.539 116.011L192.187 120.151L189.341 123.58C189.141 123.82 189.326 124.182 189.637 124.162L194.084 123.874L196.465 127.641C196.632 127.905 197.033 127.841 197.11 127.539L198.211 123.22L202.529 122.12C202.832 122.043 202.895 121.641 202.631 121.475L198.865 119.094L199.152 114.647C199.172 114.335 198.81 114.151 198.57 114.35Z"/><path fill="#FFF082" d="M187.463 118.888C187.845 118.95 189.251 119.453 190.065 119.751C190.193 119.797 190.162 119.986 190.026 119.99C189.16 120.014 187.667 120.045 187.285 119.983C186.983 119.933 186.777 119.648 186.827 119.346C186.876 119.044 187.161 118.838 187.463 118.888Z"/><path fill="#FFF082" d="M193.878 112.473C193.941 112.855 194.443 114.26 194.741 115.075C194.788 115.203 194.977 115.172 194.98 115.036C195.005 114.169 195.035 112.677 194.973 112.294C194.924 111.992 194.639 111.787 194.337 111.836C194.034 111.885 193.829 112.17 193.878 112.473Z"/><path fill="#FFF082" d="M202.921 116.46C202.576 116.635 201.389 117.541 200.704 118.073C200.597 118.156 200.683 118.326 200.814 118.289C201.647 118.049 203.078 117.624 203.423 117.449C203.697 117.31 203.805 116.976 203.667 116.703C203.528 116.43 203.194 116.321 202.921 116.46Z"/><path fill="#FFF082" d="M191.451 127.93C191.626 127.585 192.532 126.399 193.063 125.714C193.147 125.606 193.317 125.692 193.279 125.823C193.039 126.656 192.615 128.088 192.44 128.433C192.301 128.706 191.967 128.815 191.694 128.676C191.421 128.537 191.312 128.203 191.451 127.93Z"/><path fill="#FFF082" d="M201.232 127.002C200.958 126.728 200.111 125.499 199.625 124.781C199.548 124.669 199.683 124.534 199.796 124.61C200.514 125.097 201.743 125.944 202.017 126.217C202.233 126.434 202.233 126.785 202.017 127.002C201.8 127.218 201.449 127.218 201.232 127.002Z"/><path fill="#FFC850" d="M192.507 116.148L191.001 115.549C190.711 115.434 190.424 115.721 190.539 116.011L192.187 120.151L189.341 123.58C189.141 123.82 189.326 124.182 189.637 124.162L194.084 123.874L196.465 127.641C196.632 127.905 197.033 127.841 197.11 127.539L197.257 126.964C194.021 122.546 192.874 118.075 192.507 116.148Z"/><path fill="#FFDC64" d="M124.199 3.88925L121.199 6.38L117.576 4.93821C117.323 4.83725 117.071 5.08865 117.172 5.34231L118.614 8.96519L116.123 11.9652C115.949 12.1753 116.11 12.4921 116.383 12.4744L120.274 12.2227L122.357 15.5186C122.503 15.7494 122.854 15.6938 122.922 15.4292L123.885 11.6508L127.663 10.6878C127.928 10.6203 127.983 10.2692 127.753 10.1233L124.457 8.0398L124.708 4.1487C124.726 3.87625 124.409 3.71484 124.199 3.88925Z"/><path fill="#FFC850" d="M118.894 5.46252L117.576 4.93823C117.322 4.83727 117.071 5.08867 117.172 5.34233L118.614 8.96521L116.123 11.9652C115.949 12.1753 116.11 12.4921 116.383 12.4744L120.274 12.2227L122.357 15.5186C122.503 15.7494 122.854 15.6938 122.922 15.4292L123.05 14.9264C120.219 11.0606 119.215 7.14839 118.894 5.46252Z"/><rect width="15" height="3" x="39.65" y="31.223" fill="#FE4B20" rx="1.5" transform="rotate(-37 39.6498 31.2229)"/><rect width="15" height="3" x="219.844" y="18.816" fill="#FE4B20" rx="1.5" transform="rotate(-37 219.844 18.8157)"/><rect width="15" height="3" x="243.844" y="89.816" fill="#FE4B20" rx="1.5" transform="rotate(-37 243.844 89.8157)"/><rect width="15" height="3" x="75.844" y="102.351" fill="#FE4B20" rx="1.5" transform="rotate(31 75.8438 102.351)"/><rect width="10" height="2" x="90.204" y="42.007" fill="#9186F4" rx="1" transform="rotate(67 90.2036 42.0067)"/><rect width="6" height="6" x="5.015" y="42.763" fill="#9186F4" transform="rotate(42 5.01477 42.7632)"/><rect width="6" height="6" x="28.03" y="143.155" fill="#9186F4" transform="rotate(70 28.0298 143.155)"/><rect width="6" height="6" x="164.793" y="95.155" fill="#FE4B20" transform="rotate(70 164.793 95.1549)"/><rect width="15" height="3" x="201.081" y="217.351" fill="#FE4B20" rx="1.5" transform="rotate(31 201.081 217.351)"/><rect width="10" height="2" x="247.966" y="206.068" fill="#9186F4" rx="1" transform="rotate(31 247.966 206.068)"/><rect width="10" height="2" x="181.385" y="54.398" fill="#9186F4" rx="1" transform="rotate(138 181.385 54.3975)"/></svg>